<svg xmlns="http://www.w3.org/2000/svg" viewBox="0 0 800 500" width="800" height="500" role="img" aria-label="Abstract visual for Orbitdesk">
<defs>
<linearGradient id="bg" x1="0" y1="0" x2="1" y2="1"><stop offset="0" stop-color="#0a1018"/><stop offset="1" stop-color="#0e1622"/></linearGradient>
<linearGradient id="g2" x1="0" y1="1" x2="1" y2="0"><stop offset="0" stop-color="#34d399"/><stop offset="1" stop-color="#5b9dff"/></linearGradient>
<radialGradient id="glow" cx="0.25" cy="0.15" r="0.8"><stop offset="0" stop-color="#34d399" stop-opacity="0.35"/><stop offset="1" stop-color="#34d399" stop-opacity="0"/></radialGradient>
<pattern id="dots" width="28" height="28" patternUnits="userSpaceOnUse"><circle cx="1.5" cy="1.5" r="1.5" fill="#ffffff" fill-opacity="0.07"/></pattern>
</defs>
<rect width="800" height="500" fill="url(#bg)"/>
<rect width="800" height="500" fill="url(#dots)"/>
<rect width="800" height="500" fill="url(#glow)"/>
<rect x="90" y="310" width="34" height="120" rx="8" fill="url(#g2)" opacity="0.35"/>
<rect x="144" y="377" width="34" height="53" rx="8" fill="url(#g2)" opacity="0.42"/>
<rect x="198" y="218" width="34" height="212" rx="8" fill="url(#g2)" opacity="0.49"/>
<rect x="252" y="148" width="34" height="282" rx="8" fill="url(#g2)" opacity="0.56"/>
<rect x="306" y="190" width="34" height="240" rx="8" fill="url(#g2)" opacity="0.63"/>
<rect x="360" y="201" width="34" height="229" rx="8" fill="url(#g2)" opacity="0.70"/>
<rect x="414" y="169" width="34" height="261" rx="8" fill="url(#g2)" opacity="0.77"/>
<rect x="468" y="150" width="34" height="280" rx="8" fill="url(#g2)" opacity="0.84"/>
<rect x="522" y="225" width="34" height="205" rx="8" fill="url(#g2)" opacity="0.91"/>
<polyline points="107,360 161,236 215,170 269,253 323,238 377,264 431,192 485,346 539,258" fill="none" stroke="#34d399" stroke-width="4" stroke-linecap="round" stroke-linejoin="round"/>
</svg>